<?xml version="1.0" encoding="UTF-8" standalone="no"?>
<!DOCTYPE svg PUBLIC "-//W3C//DTD SVG 1.1//EN"
 "http://www.w3.org/Graphics/SVG/1.1/DTD/svg11.dtd">
<!-- Generated by graphviz version 3.0.0 (20220226.1711)
 -->
<!-- Title: finite_state_machine Pages: 1 -->
<svg width="584pt" height="207pt"
 viewBox="0.00 0.00 583.87 207.14" xmlns="http://www.w3.org/2000/svg" xmlns:xlink="http://www.w3.org/1999/xlink">
<g id="graph0" class="graph" transform="scale(1 1) rotate(0) translate(4 203.14)">
<title>finite_state_machine</title>
<polygon fill="white" stroke="transparent" points="-4,4 -4,-203.14 579.87,-203.14 579.87,4 -4,4"/>
<!-- begin -->
<g id="node1" class="node">
<title>begin</title>
<ellipse fill="black" stroke="black" cx="1.8" cy="-75.65" rx="1.8" ry="1.8"/>
</g>
<!-- text -->
<g id="node2" class="node">
<title>text</title>
<ellipse fill="none" stroke="black" cx="67.25" cy="-75.65" rx="26.8" ry="26.8"/>
<text text-anchor="middle" x="67.25" y="-71.95" font-family="Times New Roman,serif" font-size="14.00">Free</text>
</g>
<!-- begin&#45;&gt;text -->
<g id="edge1" class="edge">
<title>begin&#45;&gt;text</title>
<path fill="none" stroke="black" d="M3.9,-75.65C7.35,-75.65 18.4,-75.65 30.26,-75.65"/>
<polygon fill="black" stroke="black" points="30.27,-79.15 40.27,-75.65 30.27,-72.15 30.27,-79.15"/>
</g>
<!-- text&#45;&gt;text -->
<g id="edge2" class="edge">
<title>text&#45;&gt;text</title>
<path fill="none" stroke="black" d="M59.05,-101.34C58.58,-111.65 61.32,-120.3 67.25,-120.3 71.05,-120.3 73.53,-116.75 74.71,-111.48"/>
<polygon fill="black" stroke="black" points="78.21,-111.57 75.45,-101.34 71.23,-111.06 78.21,-111.57"/>
<text text-anchor="middle" x="67.25" y="-124.1" font-family="Times New Roman,serif" font-size="14.00">[^#\0]</text>
</g>
<!-- text_block -->
<g id="node3" class="node">
<title>text_block</title>
<ellipse fill="none" stroke="black" cx="177.39" cy="-162.65" rx="32.49" ry="32.49"/>
<ellipse fill="none" stroke="black" cx="177.39" cy="-162.65" rx="36.49" ry="36.49"/>
<text text-anchor="middle" x="177.39" y="-158.95" font-family="Times New Roman,serif" font-size="14.00">Block</text>
</g>
<!-- text&#45;&gt;text_block -->
<g id="edge3" class="edge">
<title>text&#45;&gt;text_block</title>
<path fill="none" stroke="black" d="M88.59,-92.01C103.1,-103.69 123.01,-119.7 140.2,-133.53"/>
<polygon fill="black" stroke="black" points="138.4,-136.58 148.39,-140.12 142.79,-131.12 138.4,-136.58"/>
<text text-anchor="middle" x="117.4" y="-122.45" font-family="Times New Roman,serif" font-size="14.00">#</text>
</g>
<!-- end -->
<g id="node9" class="node">
<title>end</title>
<ellipse fill="none" stroke="black" cx="177.39" cy="-75.65" rx="28.68" ry="28.68"/>
<ellipse fill="none" stroke="black" cx="177.39" cy="-75.65" rx="32.7" ry="32.7"/>
<text text-anchor="middle" x="177.39" y="-71.95" font-family="Times New Roman,serif" font-size="14.00">EOF</text>
</g>
<!-- text&#45;&gt;end -->
<g id="edge12" class="edge">
<title>text&#45;&gt;end</title>
<path fill="none" stroke="black" d="M94.15,-75.65C106.2,-75.65 120.84,-75.65 134.41,-75.65"/>
<polygon fill="black" stroke="black" points="134.52,-79.15 144.52,-75.65 134.52,-72.15 134.52,-79.15"/>
<text text-anchor="middle" x="117.4" y="-79.45" font-family="Times New Roman,serif" font-size="14.00">\0</text>
</g>
<!-- pending_structure -->
<g id="node4" class="node">
<title>pending_structure</title>
<ellipse fill="none" stroke="black" cx="269.74" cy="-147.65" rx="18.7" ry="18.7"/>
<text text-anchor="middle" x="269.74" y="-143.95" font-family="Times New Roman,serif" font-size="14.00">h?</text>
</g>
<!-- text_block&#45;&gt;pending_structure -->
<g id="edge4" class="edge">
<title>text_block&#45;&gt;pending_structure</title>
<path fill="none" stroke="black" d="M213.58,-156.81C222.6,-155.31 232.17,-153.72 240.77,-152.29"/>
<polygon fill="black" stroke="black" points="241.38,-155.74 250.67,-150.65 240.23,-148.83 241.38,-155.74"/>
</g>
<!-- h0 -->
<g id="node5" class="node">
<title>h0</title>
<ellipse fill="none" stroke="black" cx="355.08" cy="-147.65" rx="19.5" ry="19.5"/>
<ellipse fill="none" stroke="black" cx="355.08" cy="-147.65" rx="23.5" ry="23.5"/>
<text text-anchor="middle" x="355.08" y="-143.95" font-family="Times New Roman,serif" font-size="14.00">h0</text>
</g>
<!-- pending_structure&#45;&gt;h0 -->
<g id="edge5" class="edge">
<title>pending_structure&#45;&gt;h0</title>
<path fill="none" stroke="black" d="M288.82,-147.65C298.33,-147.65 310.28,-147.65 321.34,-147.65"/>
<polygon fill="black" stroke="black" points="321.57,-151.15 331.57,-147.65 321.57,-144.15 321.57,-151.15"/>
<text text-anchor="middle" x="310.09" y="-151.45" font-family="Times New Roman,serif" font-size="14.00">0</text>
</g>
<!-- h1 -->
<g id="node6" class="node">
<title>h1</title>
<ellipse fill="none" stroke="black" cx="355.08" cy="-82.65" rx="19.5" ry="19.5"/>
<ellipse fill="none" stroke="black" cx="355.08" cy="-82.65" rx="23.5" ry="23.5"/>
<text text-anchor="middle" x="355.08" y="-78.95" font-family="Times New Roman,serif" font-size="14.00">h1</text>
</g>
<!-- pending_structure&#45;&gt;h1 -->
<g id="edge6" class="edge">
<title>pending_structure&#45;&gt;h1</title>
<path fill="none" stroke="black" d="M285.26,-136.33C297.03,-127.14 313.93,-113.97 328.03,-102.97"/>
<polygon fill="black" stroke="black" points="330.22,-105.7 335.95,-96.79 325.92,-100.18 330.22,-105.7"/>
<text text-anchor="middle" x="310.09" y="-122.45" font-family="Times New Roman,serif" font-size="14.00">1</text>
</g>
<!-- pending_title -->
<g id="node7" class="node">
<title>pending_title</title>
<ellipse fill="none" stroke="black" cx="441.58" cy="-82.65" rx="26" ry="26"/>
<text text-anchor="middle" x="441.58" y="-78.95" font-family="Times New Roman,serif" font-size="14.00">Acc</text>
</g>
<!-- h0&#45;&gt;pending_title -->
<g id="edge7" class="edge">
<title>h0&#45;&gt;pending_title</title>
<path fill="none" stroke="black" d="M374.42,-133.54C385.46,-125.05 399.75,-114.05 412.23,-104.46"/>
<polygon fill="black" stroke="black" points="414.72,-106.96 420.51,-98.09 410.45,-101.41 414.72,-106.96"/>
</g>
<!-- h1&#45;&gt;pending_title -->
<g id="edge8" class="edge">
<title>h1&#45;&gt;pending_title</title>
<path fill="none" stroke="black" d="M378.73,-82.65C386.88,-82.65 396.28,-82.65 405.26,-82.65"/>
<polygon fill="black" stroke="black" points="405.49,-86.15 415.49,-82.65 405.49,-79.15 405.49,-86.15"/>
</g>
<!-- pending_title&#45;&gt;pending_title -->
<g id="edge9" class="edge">
<title>pending_title&#45;&gt;pending_title</title>
<path fill="none" stroke="black" d="M433.4,-107.52C432.84,-117.87 435.56,-126.65 441.58,-126.65 445.43,-126.65 447.94,-123.05 449.09,-117.74"/>
<polygon fill="black" stroke="black" points="452.6,-117.73 449.76,-107.52 445.61,-117.28 452.6,-117.73"/>
<text text-anchor="middle" x="441.58" y="-130.45" font-family="Times New Roman,serif" font-size="14.00">[^\n]</text>
</g>
<!-- title -->
<g id="node8" class="node">
<title>title</title>
<ellipse fill="none" stroke="black" cx="545.23" cy="-30.65" rx="26.78" ry="26.78"/>
<ellipse fill="none" stroke="black" cx="545.23" cy="-30.65" rx="30.8" ry="30.8"/>
<text text-anchor="middle" x="545.23" y="-26.95" font-family="Times New Roman,serif" font-size="14.00">Title</text>
</g>
<!-- pending_title&#45;&gt;title -->
<g id="edge10" class="edge">
<title>pending_title&#45;&gt;title</title>
<path fill="none" stroke="black" d="M465.14,-71.11C477.8,-64.63 493.91,-56.39 508.27,-49.04"/>
<polygon fill="black" stroke="black" points="510.09,-52.04 517.4,-44.37 506.91,-45.81 510.09,-52.04"/>
<text text-anchor="middle" x="491.08" y="-64.45" font-family="Times New Roman,serif" font-size="14.00">\n</text>
</g>
<!-- title&#45;&gt;text -->
<g id="edge11" class="edge">
<title>title&#45;&gt;text</title>
<path fill="none" stroke="black" d="M515.06,-23.58C494.84,-19.3 467.23,-14.65 442.58,-14.65 176.39,-14.65 176.39,-14.65 176.39,-14.65 145.37,-14.65 115.06,-33.92 94.45,-50.8"/>
<polygon fill="black" stroke="black" points="92.12,-48.19 86.78,-57.35 96.66,-53.52 92.12,-48.19"/>
</g>
</g>
</svg>
